<svg width="256" height="256" viewBox="0 0 256 256" xmlns="http://www.w3.org/2000/svg">
  <!-- Background -->
  <defs>
    <linearGradient id="bg-grad" x1="0" y1="0" x2="1" y2="1">
      <stop offset="0%" stop-color="#111827"/>
      <stop offset="100%" stop-color="#1f2937"/>
    </linearGradient>
  </defs>

  <rect x="16" y="16" width="224" height="224" rx="40" fill="url(#bg-grad)"/>

  <!-- Graph / Foam-like nodes -->
  <!-- Edges -->
  <line x1="80" y1="92" x2="144" y2="64" stroke="#a5b4fc" stroke-width="6" stroke-linecap="round"/>
  <line x1="80" y1="92" x2="72" y2="164" stroke="#a5b4fc" stroke-width="6" stroke-linecap="round"/>
  <line x1="144" y1="64" x2="184" y2="124" stroke="#a5b4fc" stroke-width="6" stroke-linecap="round"/>

  <!-- Nodes -->
  <circle cx="80" cy="92" r="14" fill="#4f46e5"/>
  <circle cx="144" cy="64" r="12" fill="#6366f1"/>
  <circle cx="72" cy="164" r="12" fill="#6366f1"/>
  <circle cx="184" cy="124" r="12" fill="#818cf8"/>

  <!-- Project folder (bottom-right) -->
  <g transform="translate(134,142)">
    <!-- Folder body -->
    <rect x="16" y="44" width="90" height="56" rx="10" fill="#fbbf24"/>
    <!-- Folder tab -->
    <path d="M16 44 L46 44 L56 30 H100 C106 30 110 34 110 40 V56 H16 Z" fill="#f59e0b"/>
    <!-- Little "project" divider line -->
    <line x1="26" y1="72" x2="96" y2="72" stroke="#92400e" stroke-width="3" stroke-linecap="round"/>
  </g>

  <!-- Subtle highlight on the top-left corner -->
  <path d="M32 60 Q128 16 224 60" fill="none" stroke="rgba(255,255,255,0.12)" stroke-width="10" stroke-linecap="round"/>
</svg>
